PathFileType	4	(X/Y/Z)	C:/Users/opensim2020/Desktop/walking_exp_matlab/subject02_walking05_straight_01.trc	
DataRate	CameraRate	NumFrames	NumMarkers	Units	OrigDataRate	OrigDataStartFrame	OrigNumFrames	
100.00	100.00	4	42	mm	100.00	673	190	
Frame#	Time	LFHD			RFHD			LBHD			RBHD			C7			T10			CLAV			STRN			RBAK			LSHO			LUPA			LELB			LFRM			LWRA			LWRB			LFIN			RSHO			RUPA			RELB			RFRM			RWRA			RWRB			RFIN			LASI			RASI			LPSI			RPSI			LTHI			LKNE			LTIB			LANK			LHEE			LTOE			RTHI			RKNE			RTIB			RANK			RHEE			RTOE			*39			*40			*41			
		X1	Y1	Z1	X2	Y2	Z2	X3	Y3	Z3	X4	Y4	Z4	X5	Y5	Z5	X6	Y6	Z6	X7	Y7	Z7	X8	Y8	Z8	X9	Y9	Z9	X10	Y10	Z10	X11	Y11	Z11	X12	Y12	Z12	X13	Y13	Z13	X14	Y14	Z14	X15	Y15	Z15	X16	Y16	Z16	X17	Y17	Z17	X18	Y18	Z18	X19	Y19	Z19	X20	Y20	Z20	X21	Y21	Z21	X22	Y22	Z22	X23	Y23	Z23	X24	Y24	Z24	X25	Y25	Z25	X26	Y26	Z26	X27	Y27	Z27	X28	Y28	Z28	X29	Y29	Z29	X30	Y30	Z30	X31	Y31	Z31	X32	Y32	Z32	X33	Y33	Z33	X34	Y34	Z34	X35	Y35	Z35	X36	Y36	Z36	X37	Y37	Z37	X38	Y38	Z38	X39	Y39	Z39	X40	Y40	Z40	X41	Y41	Z41	X42	Y42	Z42	

24	0.230	-1065.48303	-930.03693	1720.81885	-920.01355	-932.13623	1701.90564	-1075.61011	-1056.82947	1643.54248	-934.01129	-1073.85840	1622.22949	-994.93811	-1112.65979	1508.50793	-981.94165	-1182.98157	1238.07581	-1015.33264	-978.71106	1431.30847	-1001.73212	-936.97815	1257.13123	-918.87238	-1173.01575	1342.79797	-1180.02393	-1057.28552	1471.54675	-1260.35791	-1101.77808	1277.48108	-1280.79919	-1126.44006	1139.52478	-1302.64624	-1116.57288	1007.07581	-1291.77942	-1047.87378	886.31146	-1310.99158	-1100.86780	884.79822	-1322.12708	-1077.25403	823.18872	-817.34106	-1012.74335	1477.18311	-726.08704	-1000.20081	1286.46814	-712.73376	-950.09552	1145.88074	-708.87067	-885.23206	1042.53259	-745.95667	-805.47845	938.54443	-705.98322	-842.07562	919.41669	-714.22540	-785.94330	873.77594	-1124.91064	-956.49164	976.88300	-866.34808	-957.16119	951.90662	-1042.19543	-1167.94629	1013.81903	-928.73584	-1171.65295	1010.83246	-1211.49768	-954.16504	680.19861	-1192.48767	-905.54065	485.15775	-1208.41589	-882.67639	294.02353	-1205.60193	-782.18872	90.61990	-1153.50732	-799.07574	50.44570	-1222.53516	-624.85382	103.09147	-816.52643	-1077.89990	650.08124	-861.26007	-1124.36304	445.03036	-851.88293	-1208.77173	275.72614	-888.37817	-1275.21899	91.96709	-940.44891	-1323.60352	39.34995	-889.19281	-1129.08972	30.20152	-975.34149	-1033.16553	1784.10681	-3360.26904	2845.18018	1033.73950			 
25	0.240	-1067.90967	-921.62775	1719.64819	-922.21136	-923.98761	1700.87439	-1077.76526	-1048.10034	1641.89868	-936.55933	-1065.88647	1621.08545	-997.43414	-1104.41223	1507.32080	-984.41992	-1174.28784	1236.75476	-1017.53717	-970.10803	1429.99097	-1003.38086	-928.30981	1255.89453	-921.43713	-1164.73096	1341.77930	-1182.51733	-1048.51892	1469.89502	-1262.40833	-1094.29248	1275.89771	-1282.40625	-1120.12366	1138.08398	-1304.00623	-1112.57520	1005.49353	-1292.71252	-1046.29211	883.20337	-1312.43701	-1099.13452	883.02917	-1323.09180	-1076.83984	820.73883	-819.42749	-1004.51416	1476.18335	-728.36133	-992.28455	1285.21179	-715.15259	-941.35809	1144.80188	-712.60779	-875.26288	1042.11169	-750.30640	-794.56342	939.47882	-709.97803	-830.96954	919.35431	-718.67279	-774.25232	874.47705	-1126.53259	-946.62164	975.75201	-867.65344	-949.51520	950.53711	-1044.63416	-1158.73901	1012.36188	-931.22211	-1162.95728	1009.40771	-1213.38757	-942.08069	679.38464	-1193.88342	-894.50854	484.39078	-1209.78906	-872.87225	293.02393	-1206.02258	-774.58881	88.86560	-1154.27075	-792.93268	49.30544	-1222.62219	-617.76752	99.28292	-817.79968	-1072.16101	649.50470	-862.02490	-1119.41370	444.51581	-852.55969	-1206.27246	276.34702	-888.74548	-1274.51892	93.20503	-940.93799	-1323.24011	41.14681	-889.05591	-1129.12207	30.13202	-977.85059	-1025.00073	1782.80603	-3360.35669	2845.12573	1033.81152			 
26	0.250	-1070.37012	-913.27808	1718.62280	-924.88507	-915.64838	1699.74133	-1080.35437	-1039.44141	1640.67053	-939.26898	-1057.50940	1620.16589	-1000.15729	-1095.61975	1506.01978	-986.98157	-1165.43481	1235.47144	-1019.87830	-961.43213	1428.74170	-1005.37244	-919.42053	1254.89990	-923.11523	-1158.74597	1341.43237	-1185.11584	-1039.84607	1468.26685	-1264.44482	-1086.51111	1274.58386	-1284.12878	-1114.08057	1137.14795	-1305.63281	-1108.68445	1004.14087	-1293.67627	-1044.63354	880.24725	-1313.99451	-1097.35461	881.43597	-1324.15283	-1076.42920	818.50195	-821.87158	-996.45288	1475.09033	-730.91241	-983.69037	1284.22559	-717.74847	-932.59003	1143.71411	-715.40222	-865.64532	1041.83276	-753.91162	-784.11493	939.85040	-714.17084	-820.21399	919.15851	-723.08502	-763.43793	875.20618	-1128.46252	-936.44458	974.91302	-869.32825	-940.81836	949.12756	-1047.16931	-1149.35632	1011.01831	-933.92548	-1154.03601	1008.14075	-1214.74524	-930.44794	678.76300	-1195.16125	-883.55908	483.60782	-1211.08704	-863.68103	291.96802	-1206.44238	-768.37994	87.03330	-1154.66296	-787.53973	47.53631	-1222.65906	-611.47839	95.37254	-819.18823	-1066.21277	649.06256	-862.57196	-1114.39258	444.13245	-853.08057	-1203.37134	277.08145	-888.87262	-1273.77930	94.66486	-941.23108	-1322.78870	43.21159	-888.88995	-1129.01746	30.02997	-980.51910	-1016.77179	1781.71863	-3360.30762	2845.19995	1033.62952			 
27	0.260	-1070.01697	-902.20526	1716.99768	-927.35345	-907.23395	1698.95044	-1083.14734	-1030.84717	1639.76758	-941.98834	-1049.07935	1619.11121	-1002.84424	-1087.15576	1505.02173	-989.70831	-1156.41199	1234.28101	-1022.38330	-952.66583	1427.79810	-1007.40552	-910.43005	1254.08191	-926.56226	-1148.40906	1339.82678	-1187.72168	-1030.99133	1466.59497	-1266.61072	-1079.13647	1273.00745	-1285.74683	-1107.30615	1135.65344	-1307.17480	-1104.62305	1002.99213	-1294.84998	-1042.98792	877.93811	-1315.57434	-1095.48682	880.10358	-1325.27136	-1075.98901	816.51025	-824.30396	-988.06390	1474.22058	-733.44427	-976.29089	1283.20471	-720.41498	-924.01178	1142.73218	-719.02570	-856.43524	1041.18457	-758.00177	-773.87976	940.22876	-718.52173	-810.00287	918.99268	-727.47180	-752.35077	875.64893	-1130.67078	-926.17712	974.20502	-871.21881	-932.41998	947.89850	-1049.91882	-1139.66992	1009.82404	-936.83630	-1144.86548	1007.05463	-1216.42334	-918.97034	678.17804	-1196.48950	-872.70544	482.90533	-1212.32837	-855.02173	290.90695	-1206.41943	-763.21515	84.72526	-1154.70618	-783.11053	45.21254	-1222.57007	-606.44141	91.17733	-820.68994	-1059.81775	648.64551	-863.02258	-1108.77600	443.87915	-853.56104	-1200.17615	277.92627	-888.78021	-1272.92529	96.40693	-941.05133	-1322.35120	45.63605	-888.62329	-1128.68738	29.89956	-982.97656	-1008.13763	1780.52734	-3357.32861	2845.84937	1033.97021			 
